<svg width="480" height="480" viewBox="0 0 480 480" fill="none" xmlns="http://www.w3.org/2000/svg">
<path d="M220.923 40.1099C236.49 38.9504 255.308 40.3947 270.463 43.6237C279.528 45.5549 282.663 45.3322 292.035 45.3187L313.88 45.3177C334.228 45.3192 354.888 45.4967 375.215 45.2407C375.388 58.9167 375.16 72.6354 375.255 86.3152C375.283 90.3817 375.308 94.5637 375.158 98.6222C372.02 97.728 364.015 96.6619 360.63 96.1257L335.96 92.1804C331.29 91.4402 325.673 90.7167 321.13 89.7164C336.97 105.532 340.475 135.245 337.47 156.415C334.405 178.016 322.495 196.852 305.07 209.735C284.15 225.205 258.733 230.943 233.07 230.345C222.789 230.182 217.747 230.353 207.1 228.757C200.471 236.168 195.614 245.515 195.798 255.737C196.194 277.75 225.609 273.472 240.98 273.465L274.335 273.452C285.43 273.447 295.588 273.17 306.585 275.115C323.263 278.067 337.815 284.73 350.12 296.537C363.658 309.527 368.72 326.462 369.24 344.665C369.858 366.292 363.423 388.167 347.94 403.852C319.555 432.612 280.923 439.277 242.444 440.057C215.86 440.587 179.857 435.497 154.665 427.185C142.586 423.202 130.917 418.067 119.821 411.852C121.65 407.745 123.298 402.307 124.949 398.015C129.369 386.522 133.242 374.065 137.838 362.707C145.975 366.252 152.136 369.415 160.827 372.682C186.797 382.272 214.286 387.09 241.97 386.905C261.62 386.71 286.833 384.36 301.743 369.872C312.148 359.762 310.92 339.172 296.783 333.09C288.575 329.56 278.375 330.315 269.498 330.33L230.376 330.335C203.493 330.332 179.733 331.06 158.386 310.845C147.823 300.842 142.401 285.482 142.135 271.062C141.718 248.53 152.052 230.922 167.355 215.236C163.026 212.275 159.056 209.598 155.13 206.127C135.071 188.542 126.551 168.102 124.968 141.903C121.216 79.7944 160.152 43.4747 220.923 40.1099ZM236.563 179.448C249.565 178.775 260.468 174.827 269.208 164.698C283.065 148.638 282.295 115.987 265.678 101.966C253.808 91.7024 242.846 90.3017 228.036 90.8592C222.631 91.0962 218.579 91.4077 213.358 93.0764C192.354 99.7907 183.77 117.637 185.043 138.753C185.723 150.029 188.945 160.353 197.572 168.224C210.434 179.209 221.06 179.556 236.563 179.448Z" fill="#808080"/>
</svg>
