<svg width="200" height="200" viewBox="-21.00 -21.00 162.00 162.00" fill="none" xmlns="http://www.w3.org/2000/svg">
<path d="M44.6636 26.0549C44.0103 25.6738 43.2578 25.2596 42.8589 24.6116C42.6077 22.9425 45.0406 23.5193 45.7875 23.3631C45.842 22.8966 45.9548 21.101 46.0764 20.7786C47.6087 16.7189 50.483 11.7895 54.9561 10.5266C55.6713 10.3247 57.1827 9.52251 57.6807 10.4074C57.4901 10.7472 55.2587 11.9363 54.4674 12.6537C50.8704 15.9154 49.3058 19.913 47.654 24.2467C47.71 24.8853 47.6154 25.2303 47.7809 25.8715L48.0817 26.1138C48.3233 26.049 48.4475 25.8983 48.6353 25.7277C49.0818 24.6109 49.9306 22.2245 50.5268 21.3181C52.2066 18.7637 54.0022 16.6441 55.7252 14.035C57.1448 14.0259 59.7671 13.5813 60.739 13.9712C61.5243 14.9625 58.8669 16.871 58.17 17.5772C61.5292 17.5697 61.9816 18.8963 64.7014 19.1023C63.5027 19.8431 62.5439 20.4859 61.5988 21.5911C58.6181 25.077 55.5795 31.7856 54.4188 36.2308C53.8381 38.4549 52.8149 43.7459 52.6674 45.9059C52.3976 49.8572 53.8528 55.4655 54.7164 59.4164C54.8572 60.0604 55.8089 64.9913 55.8991 65.2444C56.5434 67.7633 57.9044 68.798 60.1254 69.8856C59.9338 70.5583 60.2306 71.2013 60.5541 71.7848C60.6653 71.9819 60.7846 72.1743 60.9117 72.3615C61.7015 73.2844 62.6187 74.6642 63.3494 75.6898L63.2311 75.7265C62.9105 75.4134 62.8245 75.3436 62.6124 74.9266L62.396 74.9127C61.0135 77.949 63.0321 78.4599 62.8154 80.1244C64.602 83.3519 67.1488 87.2558 69.331 90.2543C70.7788 92.2435 72.9929 94.2248 74.5785 96.2579C76.0089 97.5477 76.8124 98.6463 78.027 99.8511L77.4897 100.66C76.6751 99.8502 74.4334 98.3242 73.9137 97.4391C72.6617 96.8535 67.4281 91.7502 66.0966 90.5022C64.836 89.3205 63.0426 88.5219 61.9694 87.4494C61.0824 86.563 59.718 84.7269 58.8126 83.6896C57.9363 82.6859 56.0786 80.9659 55.4661 79.977C55.3956 79.583 55.1694 78.9281 55.0424 78.5226C53.4279 77.0981 51.7166 76.4182 51.8287 74.006C51.8551 73.4377 51.3204 72.2642 50.9681 71.8075C50.9715 72.3801 51.0879 73.6753 50.8544 74.0555C50.3924 74.2547 50.2059 74.0989 49.6352 73.9157C49.1562 72.9111 48.2758 71.7371 47.6208 70.8037C47.2501 70.4298 46.9556 69.9403 46.6648 69.4962C44.6549 68.5815 45.7392 67.3055 46.5992 65.9367C45.9089 65.6949 45.1725 65.498 44.4672 65.2964C42.8097 61.3009 42.1062 57.6532 42.1997 53.3616C41.8202 52.8636 40.812 51.5593 40.6312 51.0294C39.8562 48.758 39.9823 45.3046 40.0556 42.8919C40.1177 40.8445 40.5513 39.7772 41.9741 38.5189C41.4072 37.7961 41.2122 37.4736 40.7693 36.67C41.279 35.7056 41.6302 33.4235 42.0169 32.1903C42.7792 29.7575 43.5005 28.2613 44.6636 26.0549Z" fill="#FA921B"/>
<path d="M50.9682 71.8074C51.3205 72.2641 51.8552 73.4376 51.8288 74.0059C51.7167 76.4181 53.4279 77.098 55.0424 78.5225C55.1695 78.928 55.3956 79.5829 55.4661 79.9769C55.166 81.745 54.6 84.6891 54.5271 86.4154C54.3565 90.4588 55.1493 95.4597 56.38 99.3386C56.795 100.541 57.3694 101.633 57.9548 102.745C58.4484 103.683 59.5398 104.963 59.9162 105.823C60.3898 106.905 56.9744 106.966 56.6271 106.965C57.1078 107.641 58.7246 109.411 57.8703 109.973C53.9129 110.193 53.0827 106.741 51.6951 103.723C51.1151 102.461 51.2017 101.329 50.2256 100.182C49.6794 99.0535 48.4165 99.1889 47.6063 100.014C46.8682 95.6144 46.3379 90.5905 46.6642 86.1134C46.7884 84.4094 47.6852 81.9424 48.1121 80.2344C48.6332 78.1492 49.0728 75.9842 49.6352 73.9157C50.206 74.0988 50.3925 74.2546 50.8544 74.0554C51.088 73.6752 50.9716 72.38 50.9682 71.8074Z" fill="#23429E"/>
<path d="M71.0313 23.7987C78.9094 23.1357 80.6088 26.9553 77.6215 33.6419C75.8813 37.537 74.0432 40.0985 70.0332 41.8248C68.9539 42.1464 65.7869 42.4652 64.8282 42.2279C64.6419 41.7953 64.7525 41.2293 64.8016 40.7468C60.4471 36.3618 62.3476 32.9982 65.5713 28.8244C67.2893 26.6001 67.7071 24.1562 71.0313 23.7987Z" fill="#F32624"/>
<path d="M67.201 52.9681C68.2713 52.7027 67.9647 52.5121 68.7163 52.0035L69.1311 52.4919C69.0458 53.0554 68.5285 52.9202 68.5847 53.6702C65.8337 57.1974 62.986 61.027 61.291 65.2086C60.774 66.4841 60.5092 69.1721 60.1256 69.8856C57.9045 68.798 56.5435 67.7633 55.8992 65.2444C57.3102 63.9182 59.6442 60.214 61.1301 58.7057C63.0667 56.7399 65.1967 54.9044 67.201 52.9681Z" fill="#23429E"/>
</svg>
